<svg id="Capa_1" enable-background="new 0 0 512 512" height="512" viewBox="0 0 512 512" width="512" xmlns="http://www.w3.org/2000/svg"><g><g><g><path d="m127.058 97.002c-19.989-27.513-57.232-35.074-86.109-18.627-2.117 1.206-3.856 2.999-5.873 4.464-29.53 21.454-34.131 60.671-12.676 90.2s60.021 37.063 89.55 15.608c1.996-1.45 4.373-2.321 6.157-3.943 24.616-22.375 28.955-60.168 8.951-87.702z" fill="#ffa95f"/><g fill="#ff9161"><path d="m119.359 183.532c-2.143 2.052-4.455 3.991-6.923 5.784-29.529 21.454-70.861 14.908-92.315-14.621s-14.907-70.861 14.622-92.316c2.468-1.793 5.026-3.392 7.64-4.797-23.502 22.502-27.36 59.469-7.699 86.531s56.012 34.817 84.675 19.419z"/><circle cx="73.589" cy="135.849" r="32.5"/></g></g><g><path d="m492.546 172.698c19.506-27.857 14.531-65.533-10.422-87.482-1.829-1.609-4.091-2.67-6.133-4.1-29.9-20.936-68.477-12.518-89.413 17.382s-15.503 68.817 14.397 89.753c2.021 1.415 3.619 3.379 5.733 4.538 29.17 15.989 66.317 7.788 85.838-20.091z" fill="#7dc3ee"/><g fill="#64acdc"><path d="m408.224 193.59c-2.638-1.359-5.224-2.913-7.722-4.663-29.899-20.936-37.166-62.146-16.23-92.045s62.146-37.166 92.046-16.23c2.498 1.749 4.844 3.648 7.022 5.662-28.927-14.896-65.137-6.508-84.323 20.893-19.187 27.4-14.684 64.295 9.207 86.383z"/><circle cx="438.408" cy="134.79" r="32.5"/></g></g><g><path d="m367.56 390.428c0-58.563-45.34-106.537-102.832-110.734-2.708-.198-4.437.162-7.195.162-61.321 0-109.99 49.37-109.99 110.691s48.687 110.319 110.008 110.319c2.449 0 3.855.514 6.264.358 57.925-3.753 103.745-51.923 103.745-110.796z" fill="#ffe07d"/><path d="m265.639 501.095c-3.007.239-6.047.365-9.11.365-61.324 0-111.032-49.708-111.032-111.032s49.708-111.032 111.032-111.032c3.063 0 6.104.125 9.11.365-57.065 4.635-101.922 52.407-101.922 110.667s44.857 106.032 101.922 110.667z" fill="#ffd064"/><path d="m257.431 466.024c-42.385 0-75.966-33.057-75.966-75.443s32.678-76.477 75.063-76.477c2.633 0 5.236-.412 7.803-.152 38.735 3.923 69.066 36.723 69.066 76.475 0 39.791-30.391 72.618-69.181 76.487-2.529.253-4.191-.89-6.785-.89z" fill="#ffd064"/><path d="m265.639 466.761c-2.984.353-6.024.535-9.11.535-42.386 0-76.868-34.483-76.868-76.868s34.483-76.868 76.868-76.868c3.086 0 6.127.182 9.11.535-38.104 4.521-67.758 37.033-67.758 76.333s29.654 71.812 67.758 76.333z" fill="#ffc250"/></g><g><path d="m292.941 222.037-29.362-40.026-3.019-2.116c-1.998-2.723-6.065-2.723-8.063 0l-30.381 41.142c-1.454 1.982-.039 4.774 2.419 4.774l7.305 1h10.413l1 15.723c0 2.761 2.239 5 5 5l7.997 1h9.554c2.761 0 5-2.239 5-5v-16.723h19.719c2.457 0 3.872-2.793 2.418-4.774z" fill="#afefa5"/><g fill="#8ce1a4"><path d="m263.58 182.01-31.74 44.8h-9.31c-2.45 0-3.87-2.79-2.41-4.77l32.38-44.15c1.99-2.72 6.06-2.72 8.06 0z"/><path d="m256.25 229.81v18.72h-9c-2.761 0-5-2.239-5-5v-16.72h11c1.657 0 3 1.343 3 3z"/></g></g><g><path d="m383.136 272.791-1.094-49.629-1.26-3.465c-.074-3.377-3.406-5.71-6.605-4.625l-48.485 16.276c-2.327.789-2.77 3.889-.757 5.298l5.411 5.009 8.53 5.973-8.199 13.453c-1.584 2.262-1.034 5.38 1.228 6.964l5.977 5.406 7.826 5.48c2.262 1.584 5.38 1.034 6.964-1.228l9.592-13.699 16.152 11.31c2.013 1.41 4.774-.066 4.72-2.523z" fill="#afefa5"/><g fill="#8ce1a4"><path d="m382.043 223.162-51.696 18.493-7.626-5.34c-2.007-1.405-1.57-4.505.762-5.29l51.848-17.593c3.19-1.087 6.524 1.248 6.602 4.623z"/><path d="m348.621 258.113-10.737 15.335-7.372-5.162c-2.262-1.584-2.812-4.702-1.228-6.964l9.59-13.696 9.011 6.309c1.357.951 1.687 2.821.736 4.178z"/></g></g><g><path d="m189.947 232.194-47.01-15.946-3.687-.002c-3.199-1.085-6.531 1.248-6.605 4.625l-1.289 51.128c-.054 2.457 2.707 3.933 4.72 2.524l6.558-3.371 8.53-5.973 9.838 12.306c1.584 2.262 4.702 2.812 6.964 1.228l7.124-3.768 7.826-5.48c2.262-1.584 2.812-4.702 1.228-6.964l-9.592-13.699 16.153-11.31c2.012-1.409 1.569-4.508-.758-5.298z" fill="#afefa5"/><g fill="#8ce1a4"><path d="m142.937 216.248-.304 54.903-7.626 5.34c-2.007 1.405-4.77-.066-4.71-2.525l1.201-54.738c.07-3.37 3.404-5.704 6.602-4.623z"/><path d="m164.349 259.608 10.737 15.335-7.372 5.162c-2.262 1.584-5.38 1.034-6.964-1.228l-9.59-13.696 9.011-6.309c1.357-.952 3.228-.622 4.178.736z"/></g></g><g><path d="m322.619 76.631c0-34.008-25.686-62.016-58.715-65.684-2.421-.269-4.882.159-7.375.159-36.501 0-63.273 29.023-63.273 65.524s26.773 65.264 63.273 65.264c2.467 0 4.902.692 7.299.429 33.066-3.633 58.791-31.659 58.791-65.692z" fill="#ff7d91"/><g fill="#e15f78"><path d="m265.53 142.11c-2.94.4-5.95.61-9 .61-36.5 0-66.09-29.59-66.09-66.09s29.59-66.09 66.09-66.09c3.05 0 6.06.21 9 .61-32.24 4.39-57.09 32.03-57.09 65.48s24.85 61.09 57.09 65.48z"/><circle cx="256.528" cy="76.631" r="32.5"/></g></g></g><g><path d="m311.417 334.895c2.617-3.21 2.136-7.935-1.074-10.552-15.138-12.34-34.249-19.137-53.814-19.137-46.991 0-85.222 38.23-85.222 85.222s38.23 85.223 85.222 85.223 85.223-38.231 85.223-85.223c0-12.667-2.715-24.859-8.068-36.239-1.763-3.749-6.231-5.358-9.979-3.594-3.748 1.763-5.357 6.231-3.594 9.979 4.406 9.367 6.641 19.411 6.641 29.853 0 38.721-31.502 70.223-70.223 70.223s-70.222-31.502-70.222-70.223 31.501-70.222 70.222-70.222c16.122 0 31.868 5.598 44.336 15.763 3.211 2.617 7.935 2.136 10.552-1.073z"/><path d="m256.528 271.896c-32.24 0-62.39 12.718-84.896 35.812-2.891 2.966-2.83 7.715.137 10.605 2.966 2.892 7.715 2.829 10.605-.137 19.658-20.172 45.993-31.281 74.153-31.281 57.088 0 103.532 46.444 103.532 103.532s-46.444 103.532-103.532 103.532c-57.087 0-103.531-46.444-103.531-103.532 0-16.047 3.568-31.425 10.606-45.705 1.831-3.715.304-8.212-3.412-10.043-3.716-1.832-8.212-.303-10.043 3.412-8.063 16.361-12.151 33.969-12.151 52.336 0 65.359 53.173 118.532 118.531 118.532s118.532-53.173 118.532-118.532c.002-65.358-53.172-118.531-118.531-118.531z"/><path d="m256.527 443.969c4.143 0 7.5-3.358 7.5-7.5v-5.275c9.239-2.976 16.229-10.984 17.989-21.469 2.077-12.366-4.341-23.433-15.969-27.539-3.771-1.381-13.666-4.14-16.126-7.004-1.67-1.881-2.424-4.491-1.97-6.811.451-2.3 2.011-4.123 4.636-5.416 5.509-2.713 12.27 2.088 12.469 2.235 3.194 2.616 7.906 2.16 10.536-1.028 2.637-3.194 2.185-7.922-1.01-10.558-1.84-1.519-5.7-3.895-10.556-5.304v-3.829c0-4.142-3.357-7.5-7.5-7.5s-7.5 3.358-7.5 7.5v3.79c-1.023.331-2.048.735-3.069 1.238-6.847 3.374-11.366 9.051-12.726 15.985-1.355 6.918.688 14.264 5.469 19.651 4.651 5.244 10.827 7.31 17.979 9.703 6.409 2.102 11.023 7.276 10.543 12.401-.822 4.897-4.671 10.188-11.177 10.23-5.494.032-7.512-1.144-13.788-5.245-3.467-2.266-8.115-1.292-10.381 2.176-2.266 3.467-1.292 8.115 2.176 10.381 5.329 3.482 9.428 5.98 14.974 7.072v4.614c.001 4.144 3.359 7.502 7.501 7.502z"/><path d="m147.181 135.848c0-40.578-33.013-73.59-73.59-73.59-40.578-.001-73.591 33.012-73.591 73.59s33.013 73.59 73.591 73.59c40.577 0 73.59-33.013 73.59-73.59zm-73.59 58.59c-32.307 0-58.591-26.284-58.591-58.59s26.284-58.59 58.591-58.59 58.59 26.284 58.59 58.59-26.284 58.59-58.59 58.59z"/><path d="m441.812 61.277c-4.179-.195-7.646 3.013-7.834 7.151s3.013 7.645 7.15 7.833c31.33 1.428 55.872 27.137 55.872 58.529 0 32.307-26.284 58.59-58.591 58.59s-58.59-26.284-58.59-58.59c0-21.772 11.966-41.629 31.228-51.824 3.661-1.938 5.059-6.476 3.121-10.137s-6.477-5.059-10.137-3.121c-24.187 12.8-39.212 37.738-39.212 65.082 0 40.578 33.013 73.59 73.59 73.59 40.578 0 73.591-33.013 73.591-73.59 0-39.429-30.831-71.719-70.188-73.513z"/><path d="m256.528 150.221c40.578 0 73.591-33.013 73.591-73.591s-33.013-73.59-73.591-73.59c-40.577 0-73.59 33.013-73.59 73.59 0 40.578 33.013 73.591 73.59 73.591zm0-132.181c32.307 0 58.591 26.284 58.591 58.59 0 32.307-26.284 58.591-58.591 58.591s-58.59-26.284-58.59-58.591c0-32.306 26.284-58.59 58.59-58.59z"/><path d="m298.988 217.599.001.001v.001z"/><path d="m247.253 256.034h18.552c6.893 0 12.5-5.607 12.5-12.5v-9.223h12.218c3.979 0 7.569-2.206 9.367-5.755s1.453-7.747-.901-10.956l-32.381-44.143c-2.346-3.197-6.113-5.105-10.079-5.105-3.965 0-7.732 1.909-10.078 5.106l-32.383 44.143c-2.354 3.208-2.697 7.407-.899 10.956 1.799 3.549 5.388 5.754 9.366 5.754h12.219v9.223c-.001 6.893 5.606 12.5 12.499 12.5zm39.641-29.561c.001 0 .001.001.001.001-.001-.002-.002-.004-.004-.005zm-55.478-7.162 25.112-34.233 25.112 34.233h-10.836c-4.143 0-7.5 3.358-7.5 7.5v14.223h-13.552v-14.223c0-4.142-3.357-7.5-7.5-7.5z"/><path d="m384.662 208.428c-3.248-2.274-7.429-2.87-11.184-1.597l-51.846 17.586c-3.768 1.278-6.457 4.52-7.021 8.458-.563 3.939 1.112 7.804 4.372 10.087l10.009 7.008-5.29 7.555c-3.953 5.646-2.576 13.455 3.069 17.409l15.197 10.641c2.177 1.524 4.676 2.256 7.151 2.256 3.943 0 7.828-1.857 10.257-5.326l5.29-7.556 10.009 7.008c3.259 2.282 7.461 2.535 10.973.66 3.509-1.876 5.635-5.512 5.548-9.491 0 0 0 0 0-.001l-1.206-54.734c-.087-3.964-2.079-7.689-5.328-9.963zm-17.534 49.932c-3.394-2.376-8.069-1.55-10.445 1.842l-8.158 11.651-11.101-7.772 8.158-11.651c2.376-3.393 1.552-8.069-1.842-10.445l-8.877-6.216 40.207-13.638.935 42.446z"/><path d="m148.332 274.949 5.29 7.556c2.429 3.468 6.313 5.325 10.257 5.325 2.476 0 4.975-.732 7.152-2.256l15.197-10.641c5.645-3.954 7.021-11.763 3.068-17.409l-5.29-7.555 10.01-7.009c3.259-2.283 4.934-6.147 4.371-10.086-.563-3.938-3.253-7.18-7.021-8.458-.001 0-.001 0-.001 0l-51.845-17.586c-3.755-1.273-7.935-.677-11.184 1.597s-5.241 5.999-5.329 9.965l-1.206 54.733c-.087 3.979 2.039 7.615 5.548 9.491 3.509 1.875 7.713 1.623 10.972-.66zm-10.402-52.819 40.207 13.638-8.877 6.216c-3.394 2.376-4.218 7.052-1.842 10.445l8.158 11.651-11.101 7.772-8.158-11.651c-1.459-2.084-3.785-3.199-6.15-3.199-1.485 0-2.985.44-4.295 1.357l-8.877 6.215z"/><path d="m73.591 95.848c-22.056 0-40 17.944-40 40s17.944 40 40 40 40-17.944 40-40-17.945-40-40-40zm0 65c-13.785 0-25-11.215-25-25s11.215-25 25-25 25 11.215 25 25-11.215 25-25 25z"/><path d="m223.186 77.417c4.059.837 8.022-1.783 8.854-5.841 2.368-11.557 12.668-19.945 24.489-19.945 13.785 0 25 11.215 25 25s-11.215 25-25 25c-5.786 0-11.218-1.918-15.706-5.548-3.22-2.604-7.942-2.105-10.548 1.116-2.604 3.221-2.104 7.943 1.116 10.547 7.085 5.729 16.012 8.885 25.138 8.885 22.056 0 40-17.944 40-40s-17.944-40-40-40c-18.912 0-35.392 13.43-39.185 31.934-.831 4.057 1.784 8.02 5.842 8.852z"/><path d="m398.409 134.79c0 22.056 17.944 40 40 40s40-17.944 40-40-17.944-40-40-40-40 17.944-40 40zm40-25c13.785 0 25 11.215 25 25s-11.215 25-25 25-25-11.215-25-25 11.215-25 25-25z"/></g></g></svg>